# xmcd
#
# Track frame offsets:
#	150
#	13777
#	29693
#	46258
#	63363
#	78076
#	94748
#	106631
#	122486
#	136396
#	152750
#	172246
#	185738
#	199945
#	216070
#	233320
#
# Disc length: 3330 seconds
#
# Revision: 0
# Processed by: cddbd v1.5.2PL0 Copyright (c) Steve Scherf et al.
# Submitted via: audiograbber 1.83.01
#
DISCID=d00d0010
DTITLE=MH1007 Monster Hits - Male Classic Country (MH)
DYEAR=2007
DGENRE=Karaoke
TTITLE0=Williams, Hank Jr - All My Rowdy Friends Are Coming Over Tonight (MH)
TTITLE1=Alabama - Forever's As Far As I'll Go (MH)
TTITLE2=Eddie Rabbitt - Drivin My Life Away (MH)
TTITLE3=Nelson, Willie - Always On My Mind (MH)
TTITLE4=Eddie Rabbitt - I Love A Rainy Night (MH)
TTITLE5=Randy Travis - Forever And Ever Amen (MH)
TTITLE6=Freddie Fender - Before The Next Teardrop Falls (MH)
TTITLE7=BJ Thomas - Hey Won't You Play Another Somebody Done Somebody Wrong Son
TTITLE7=g (MH)
TTITLE8=Charlie Rich - The Most Beautiful Girl (MH)
TTITLE9=Ray Stevens - Everything Is Beautiful (MH)
TTITLE10=Kenny Rogers - She Believes In Me (MH)
TTITLE11=Merle Haggard  - Swinging Doors (MH)
TTITLE12=Travis Tritt  - Country Club (MH)
TTITLE13=Tracy Byrd - Walking To Jerusalem (MH)
TTITLE14=Garth Brooks - If Tomorrow Never Comes (MH)
TTITLE15=Garth Brooks - Rock My World (MH)
EXTD=
EXTT0=
EXTT1=
EXTT2=
EXTT3=
EXTT4=
EXTT5=
EXTT6=
EXTT7=
EXTT8=
EXTT9=
EXTT10=
EXTT11=
EXTT12=
EXTT13=
EXTT14=
EXTT15=
PLAYORDER=
